G04*
G04 #@! TF.GenerationSoftware,Altium Limited,Altium Designer,23.4.1 (23)*
G04*
G04 Layer_Color=128*
%FSLAX44Y44*%
%MOMM*%
G71*
G04*
G04 #@! TF.SameCoordinates,71779357-5CD3-41FB-92FB-A5B7E85101D3*
G04*
G04*
G04 #@! TF.FilePolarity,Positive*
G04*
G01*
G75*
%ADD53R,1.7018X0.7620*%
G04:AMPARAMS|DCode=54|XSize=0.9mm|YSize=0.8mm|CornerRadius=0.06mm|HoleSize=0mm|Usage=FLASHONLY|Rotation=90.000|XOffset=0mm|YOffset=0mm|HoleType=Round|Shape=RoundedRectangle|*
%AMROUNDEDRECTD54*
21,1,0.9000,0.6800,0,0,90.0*
21,1,0.7800,0.8000,0,0,90.0*
1,1,0.1200,0.3400,0.3900*
1,1,0.1200,0.3400,-0.3900*
1,1,0.1200,-0.3400,-0.3900*
1,1,0.1200,-0.3400,0.3900*
%
%ADD54ROUNDEDRECTD54*%
G04:AMPARAMS|DCode=55|XSize=0.9mm|YSize=0.8mm|CornerRadius=0.06mm|HoleSize=0mm|Usage=FLASHONLY|Rotation=180.000|XOffset=0mm|YOffset=0mm|HoleType=Round|Shape=RoundedRectangle|*
%AMROUNDEDRECTD55*
21,1,0.9000,0.6800,0,0,180.0*
21,1,0.7800,0.8000,0,0,180.0*
1,1,0.1200,-0.3900,0.3400*
1,1,0.1200,0.3900,0.3400*
1,1,0.1200,0.3900,-0.3400*
1,1,0.1200,-0.3900,-0.3400*
%
%ADD55ROUNDEDRECTD55*%
G04:AMPARAMS|DCode=64|XSize=0.9mm|YSize=1.4mm|CornerRadius=0.0675mm|HoleSize=0mm|Usage=FLASHONLY|Rotation=0.000|XOffset=0mm|YOffset=0mm|HoleType=Round|Shape=RoundedRectangle|*
%AMROUNDEDRECTD64*
21,1,0.9000,1.2650,0,0,0.0*
21,1,0.7650,1.4000,0,0,0.0*
1,1,0.1350,0.3825,-0.6325*
1,1,0.1350,-0.3825,-0.6325*
1,1,0.1350,-0.3825,0.6325*
1,1,0.1350,0.3825,0.6325*
%
%ADD64ROUNDEDRECTD64*%
G04:AMPARAMS|DCode=71|XSize=1mm|YSize=1.8mm|CornerRadius=0.05mm|HoleSize=0mm|Usage=FLASHONLY|Rotation=180.000|XOffset=0mm|YOffset=0mm|HoleType=Round|Shape=RoundedRectangle|*
%AMROUNDEDRECTD71*
21,1,1.0000,1.7000,0,0,180.0*
21,1,0.9000,1.8000,0,0,180.0*
1,1,0.1000,-0.4500,0.8500*
1,1,0.1000,0.4500,0.8500*
1,1,0.1000,0.4500,-0.8500*
1,1,0.1000,-0.4500,-0.8500*
%
%ADD71ROUNDEDRECTD71*%
G04:AMPARAMS|DCode=72|XSize=0.6mm|YSize=1.05mm|CornerRadius=0.045mm|HoleSize=0mm|Usage=FLASHONLY|Rotation=270.000|XOffset=0mm|YOffset=0mm|HoleType=Round|Shape=RoundedRectangle|*
%AMROUNDEDRECTD72*
21,1,0.6000,0.9600,0,0,270.0*
21,1,0.5100,1.0500,0,0,270.0*
1,1,0.0900,-0.4800,-0.2550*
1,1,0.0900,-0.4800,0.2550*
1,1,0.0900,0.4800,0.2550*
1,1,0.0900,0.4800,-0.2550*
%
%ADD72ROUNDEDRECTD72*%
%ADD80R,0.3000X0.8000*%
%ADD81R,0.4000X0.8000*%
G04:AMPARAMS|DCode=88|XSize=0.9mm|YSize=1.4mm|CornerRadius=0.0675mm|HoleSize=0mm|Usage=FLASHONLY|Rotation=270.000|XOffset=0mm|YOffset=0mm|HoleType=Round|Shape=RoundedRectangle|*
%AMROUNDEDRECTD88*
21,1,0.9000,1.2650,0,0,270.0*
21,1,0.7650,1.4000,0,0,270.0*
1,1,0.1350,-0.6325,-0.3825*
1,1,0.1350,-0.6325,0.3825*
1,1,0.1350,0.6325,0.3825*
1,1,0.1350,0.6325,-0.3825*
%
%ADD88ROUNDEDRECTD88*%
%ADD191R,1.7000X2.5000*%
G04:AMPARAMS|DCode=192|XSize=0.5mm|YSize=0.5mm|CornerRadius=0.0625mm|HoleSize=0mm|Usage=FLASHONLY|Rotation=180.000|XOffset=0mm|YOffset=0mm|HoleType=Round|Shape=RoundedRectangle|*
%AMROUNDEDRECTD192*
21,1,0.5000,0.3750,0,0,180.0*
21,1,0.3750,0.5000,0,0,180.0*
1,1,0.1250,-0.1875,0.1875*
1,1,0.1250,0.1875,0.1875*
1,1,0.1250,0.1875,-0.1875*
1,1,0.1250,-0.1875,-0.1875*
%
%ADD192ROUNDEDRECTD192*%
D53*
X774069Y585550D02*
D03*
Y598250D02*
D03*
Y610950D02*
D03*
Y623650D02*
D03*
Y636350D02*
D03*
Y649050D02*
D03*
Y661750D02*
D03*
Y674450D02*
D03*
X685931D02*
D03*
Y661750D02*
D03*
Y649050D02*
D03*
Y636350D02*
D03*
Y623650D02*
D03*
Y610950D02*
D03*
Y598250D02*
D03*
Y585550D02*
D03*
X774069Y435550D02*
D03*
Y448250D02*
D03*
Y460950D02*
D03*
Y473650D02*
D03*
Y486350D02*
D03*
Y499050D02*
D03*
Y511750D02*
D03*
Y524450D02*
D03*
X685931D02*
D03*
Y511750D02*
D03*
Y499050D02*
D03*
Y486350D02*
D03*
Y473650D02*
D03*
Y460950D02*
D03*
Y448250D02*
D03*
Y435550D02*
D03*
Y275550D02*
D03*
Y288250D02*
D03*
Y300950D02*
D03*
Y313650D02*
D03*
Y326350D02*
D03*
Y339050D02*
D03*
Y351750D02*
D03*
Y364450D02*
D03*
X774069D02*
D03*
Y351750D02*
D03*
Y339050D02*
D03*
Y326350D02*
D03*
Y313650D02*
D03*
Y300950D02*
D03*
Y288250D02*
D03*
Y275550D02*
D03*
Y125550D02*
D03*
Y138250D02*
D03*
Y150950D02*
D03*
Y163650D02*
D03*
Y176350D02*
D03*
Y189050D02*
D03*
Y201750D02*
D03*
Y214450D02*
D03*
X685931D02*
D03*
Y201750D02*
D03*
Y189050D02*
D03*
Y176350D02*
D03*
Y163650D02*
D03*
Y150950D02*
D03*
Y138250D02*
D03*
Y125550D02*
D03*
D54*
X99000Y556500D02*
D03*
Y539500D02*
D03*
X98000Y678500D02*
D03*
Y661500D02*
D03*
X510000Y568500D02*
D03*
Y585500D02*
D03*
X522000Y568500D02*
D03*
Y585500D02*
D03*
X536000Y568500D02*
D03*
Y585500D02*
D03*
X387000Y521500D02*
D03*
Y538500D02*
D03*
Y480500D02*
D03*
Y497500D02*
D03*
X481000Y438500D02*
D03*
Y421500D02*
D03*
X494000Y438500D02*
D03*
Y421500D02*
D03*
X507000Y438500D02*
D03*
Y421500D02*
D03*
X562000Y439500D02*
D03*
Y422500D02*
D03*
X535000Y438500D02*
D03*
Y421500D02*
D03*
X970000Y208500D02*
D03*
Y191500D02*
D03*
Y348500D02*
D03*
Y331500D02*
D03*
Y581500D02*
D03*
Y598500D02*
D03*
Y471500D02*
D03*
Y488500D02*
D03*
X550000Y585500D02*
D03*
Y568500D02*
D03*
X562000Y585500D02*
D03*
Y568500D02*
D03*
X548000Y421500D02*
D03*
Y438500D02*
D03*
X522000Y421500D02*
D03*
Y438500D02*
D03*
X466000Y421500D02*
D03*
Y438500D02*
D03*
X470000Y585500D02*
D03*
Y568500D02*
D03*
D55*
X160500Y568000D02*
D03*
X143500D02*
D03*
X160500Y631000D02*
D03*
X143500D02*
D03*
X434500Y565000D02*
D03*
X417500D02*
D03*
X434500Y499000D02*
D03*
X417500D02*
D03*
X434500Y473000D02*
D03*
X417500D02*
D03*
X505500Y395000D02*
D03*
X522500D02*
D03*
X566500Y450000D02*
D03*
X583500D02*
D03*
X566500Y469000D02*
D03*
X583500D02*
D03*
X566500Y509000D02*
D03*
X583500D02*
D03*
X898500Y170000D02*
D03*
X881500D02*
D03*
X898500Y310000D02*
D03*
X881500D02*
D03*
X931500Y370000D02*
D03*
X948500D02*
D03*
X921500Y560000D02*
D03*
X938500D02*
D03*
X898500D02*
D03*
X881500D02*
D03*
X931500Y620000D02*
D03*
X948500D02*
D03*
X463500Y395000D02*
D03*
X480500D02*
D03*
X881500Y450000D02*
D03*
X898500D02*
D03*
X948500Y510000D02*
D03*
X931500D02*
D03*
X938500Y450000D02*
D03*
X921500D02*
D03*
X938500Y310000D02*
D03*
X921500D02*
D03*
X938500Y170000D02*
D03*
X921500D02*
D03*
X947000Y230000D02*
D03*
X930000D02*
D03*
X424500Y747000D02*
D03*
X407500D02*
D03*
X424500Y767000D02*
D03*
X407500D02*
D03*
X426500Y686000D02*
D03*
X409500D02*
D03*
X426500Y706000D02*
D03*
X409500D02*
D03*
X388500Y400000D02*
D03*
X371500D02*
D03*
X388500Y420000D02*
D03*
X371500D02*
D03*
X546500Y395000D02*
D03*
X563500D02*
D03*
X583500Y535000D02*
D03*
X566500D02*
D03*
X583500Y522000D02*
D03*
X566500D02*
D03*
X583500Y495000D02*
D03*
X566500D02*
D03*
X583500Y482000D02*
D03*
X566500D02*
D03*
X417500Y525000D02*
D03*
X434500D02*
D03*
X417500Y486000D02*
D03*
X434500D02*
D03*
X417500Y539000D02*
D03*
X434500D02*
D03*
X583500Y558000D02*
D03*
X566500D02*
D03*
X417500Y552000D02*
D03*
X434500D02*
D03*
D64*
X525500Y381000D02*
D03*
X504500D02*
D03*
X544500Y379000D02*
D03*
X565500D02*
D03*
D71*
X113000Y600000D02*
D03*
X143000D02*
D03*
D72*
X901850Y209500D02*
D03*
Y190500D02*
D03*
X878150Y200000D02*
D03*
X951850Y209500D02*
D03*
Y190500D02*
D03*
X928150Y200000D02*
D03*
X901850Y349500D02*
D03*
Y330500D02*
D03*
X878150Y340000D02*
D03*
X951850Y349500D02*
D03*
Y330500D02*
D03*
X928150Y340000D02*
D03*
X901850Y489500D02*
D03*
Y470500D02*
D03*
X878150Y480000D02*
D03*
X951850Y489500D02*
D03*
Y470500D02*
D03*
X928150Y480000D02*
D03*
X901850Y599500D02*
D03*
Y580500D02*
D03*
X878150Y590000D02*
D03*
X951850Y599500D02*
D03*
Y580500D02*
D03*
X928150Y590000D02*
D03*
D80*
X312500Y714800D02*
D03*
X317500D02*
D03*
X322500D02*
D03*
X327500D02*
D03*
X332500D02*
D03*
X337500D02*
D03*
X342500D02*
D03*
X347500D02*
D03*
X352500D02*
D03*
X357500D02*
D03*
X362500D02*
D03*
X367500D02*
D03*
D81*
X302500Y739800D02*
D03*
X377500D02*
D03*
D88*
X370000Y519500D02*
D03*
Y540500D02*
D03*
Y499500D02*
D03*
Y478500D02*
D03*
D191*
X450000Y40000D02*
D03*
Y80000D02*
D03*
D192*
X374377Y435000D02*
D03*
X384377D02*
D03*
X374377Y385000D02*
D03*
X384377D02*
D03*
M02*
