G04*
G04 #@! TF.GenerationSoftware,Altium Limited,Altium Designer,23.4.1 (23)*
G04*
G04 Layer_Color=8388736*
%FSLAX44Y44*%
%MOMM*%
G71*
G04*
G04 #@! TF.SameCoordinates,71779357-5CD3-41FB-92FB-A5B7E85101D3*
G04*
G04*
G04 #@! TF.FilePolarity,Negative*
G04*
G01*
G75*
%ADD57R,0.4200X0.8128*%
%ADD58R,0.4200X0.8000*%
%ADD83R,0.2286X1.5621*%
%ADD84R,1.5621X0.2286*%
%ADD86R,0.8128X1.3208*%
%ADD87R,0.9398X1.8542*%
%ADD96R,0.6000X0.6750*%
%ADD97O,1.0032X1.2032*%
%ADD98R,5.2032X3.2032*%
%ADD99R,1.9050X0.9652*%
G04:AMPARAMS|DCode=100|XSize=1.1032mm|YSize=1.0032mm|CornerRadius=0.1616mm|HoleSize=0mm|Usage=FLASHONLY|Rotation=90.000|XOffset=0mm|YOffset=0mm|HoleType=Round|Shape=RoundedRectangle|*
%AMROUNDEDRECTD100*
21,1,1.1032,0.6800,0,0,90.0*
21,1,0.7800,1.0032,0,0,90.0*
1,1,0.3232,0.3400,0.3900*
1,1,0.3232,0.3400,-0.3900*
1,1,0.3232,-0.3400,-0.3900*
1,1,0.3232,-0.3400,0.3900*
%
%ADD100ROUNDEDRECTD100*%
G04:AMPARAMS|DCode=101|XSize=1.1032mm|YSize=1.0032mm|CornerRadius=0.1616mm|HoleSize=0mm|Usage=FLASHONLY|Rotation=180.000|XOffset=0mm|YOffset=0mm|HoleType=Round|Shape=RoundedRectangle|*
%AMROUNDEDRECTD101*
21,1,1.1032,0.6800,0,0,180.0*
21,1,0.7800,1.0032,0,0,180.0*
1,1,0.3232,-0.3900,0.3400*
1,1,0.3232,0.3900,0.3400*
1,1,0.3232,0.3900,-0.3400*
1,1,0.3232,-0.3900,-0.3400*
%
%ADD101ROUNDEDRECTD101*%
%ADD102R,1.1532X1.1032*%
G04:AMPARAMS|DCode=103|XSize=0.8032mm|YSize=1.2532mm|CornerRadius=0.1466mm|HoleSize=0mm|Usage=FLASHONLY|Rotation=180.000|XOffset=0mm|YOffset=0mm|HoleType=Round|Shape=RoundedRectangle|*
%AMROUNDEDRECTD103*
21,1,0.8032,0.9600,0,0,180.0*
21,1,0.5100,1.2532,0,0,180.0*
1,1,0.2932,-0.2550,0.4800*
1,1,0.2932,0.2550,0.4800*
1,1,0.2932,0.2550,-0.4800*
1,1,0.2932,-0.2550,-0.4800*
%
%ADD103ROUNDEDRECTD103*%
G04:AMPARAMS|DCode=104|XSize=1.5432mm|YSize=2.0032mm|CornerRadius=0.1686mm|HoleSize=0mm|Usage=FLASHONLY|Rotation=90.000|XOffset=0mm|YOffset=0mm|HoleType=Round|Shape=RoundedRectangle|*
%AMROUNDEDRECTD104*
21,1,1.5432,1.6660,0,0,90.0*
21,1,1.2060,2.0032,0,0,90.0*
1,1,0.3372,0.8330,0.6030*
1,1,0.3372,0.8330,-0.6030*
1,1,0.3372,-0.8330,-0.6030*
1,1,0.3372,-0.8330,0.6030*
%
%ADD104ROUNDEDRECTD104*%
G04:AMPARAMS|DCode=105|XSize=1.7032mm|YSize=2.2032mm|CornerRadius=0.2891mm|HoleSize=0mm|Usage=FLASHONLY|Rotation=0.000|XOffset=0mm|YOffset=0mm|HoleType=Round|Shape=RoundedRectangle|*
%AMROUNDEDRECTD105*
21,1,1.7032,1.6250,0,0,0.0*
21,1,1.1250,2.2032,0,0,0.0*
1,1,0.5782,0.5625,-0.8125*
1,1,0.5782,-0.5625,-0.8125*
1,1,0.5782,-0.5625,0.8125*
1,1,0.5782,0.5625,0.8125*
%
%ADD105ROUNDEDRECTD105*%
G04:AMPARAMS|DCode=106|XSize=4.0032mm|YSize=2.2032mm|CornerRadius=0.1516mm|HoleSize=0mm|Usage=FLASHONLY|Rotation=0.000|XOffset=0mm|YOffset=0mm|HoleType=Round|Shape=RoundedRectangle|*
%AMROUNDEDRECTD106*
21,1,4.0032,1.9000,0,0,0.0*
21,1,3.7000,2.2032,0,0,0.0*
1,1,0.3032,1.8500,-0.9500*
1,1,0.3032,-1.8500,-0.9500*
1,1,0.3032,-1.8500,0.9500*
1,1,0.3032,1.8500,0.9500*
%
%ADD106ROUNDEDRECTD106*%
G04:AMPARAMS|DCode=107|XSize=0.8032mm|YSize=1.3032mm|CornerRadius=0.1466mm|HoleSize=0mm|Usage=FLASHONLY|Rotation=90.000|XOffset=0mm|YOffset=0mm|HoleType=Round|Shape=RoundedRectangle|*
%AMROUNDEDRECTD107*
21,1,0.8032,1.0100,0,0,90.0*
21,1,0.5100,1.3032,0,0,90.0*
1,1,0.2932,0.5050,0.2550*
1,1,0.2932,0.5050,-0.2550*
1,1,0.2932,-0.5050,-0.2550*
1,1,0.2932,-0.5050,0.2550*
%
%ADD107ROUNDEDRECTD107*%
G04:AMPARAMS|DCode=108|XSize=1.1032mm|YSize=1.6032mm|CornerRadius=0.1691mm|HoleSize=0mm|Usage=FLASHONLY|Rotation=0.000|XOffset=0mm|YOffset=0mm|HoleType=Round|Shape=RoundedRectangle|*
%AMROUNDEDRECTD108*
21,1,1.1032,1.2650,0,0,0.0*
21,1,0.7650,1.6032,0,0,0.0*
1,1,0.3382,0.3825,-0.6325*
1,1,0.3382,-0.3825,-0.6325*
1,1,0.3382,-0.3825,0.6325*
1,1,0.3382,0.3825,0.6325*
%
%ADD108ROUNDEDRECTD108*%
G04:AMPARAMS|DCode=109|XSize=0.7032mm|YSize=0.8032mm|CornerRadius=0.1391mm|HoleSize=0mm|Usage=FLASHONLY|Rotation=180.000|XOffset=0mm|YOffset=0mm|HoleType=Round|Shape=RoundedRectangle|*
%AMROUNDEDRECTD109*
21,1,0.7032,0.5250,0,0,180.0*
21,1,0.4250,0.8032,0,0,180.0*
1,1,0.2782,-0.2125,0.2625*
1,1,0.2782,0.2125,0.2625*
1,1,0.2782,0.2125,-0.2625*
1,1,0.2782,-0.2125,-0.2625*
%
%ADD109ROUNDEDRECTD109*%
G04:AMPARAMS|DCode=110|XSize=0.7032mm|YSize=0.8032mm|CornerRadius=0.1391mm|HoleSize=0mm|Usage=FLASHONLY|Rotation=270.000|XOffset=0mm|YOffset=0mm|HoleType=Round|Shape=RoundedRectangle|*
%AMROUNDEDRECTD110*
21,1,0.7032,0.5250,0,0,270.0*
21,1,0.4250,0.8032,0,0,270.0*
1,1,0.2782,-0.2625,-0.2125*
1,1,0.2782,-0.2625,0.2125*
1,1,0.2782,0.2625,0.2125*
1,1,0.2782,0.2625,-0.2125*
%
%ADD110ROUNDEDRECTD110*%
%ADD111R,1.1032X1.0032*%
%ADD112R,1.2032X1.1032*%
G04:AMPARAMS|DCode=113|XSize=0.4232mm|YSize=1.0132mm|CornerRadius=0.1291mm|HoleSize=0mm|Usage=FLASHONLY|Rotation=180.000|XOffset=0mm|YOffset=0mm|HoleType=Round|Shape=RoundedRectangle|*
%AMROUNDEDRECTD113*
21,1,0.4232,0.7550,0,0,180.0*
21,1,0.1650,1.0132,0,0,180.0*
1,1,0.2582,-0.0825,0.3775*
1,1,0.2582,0.0825,0.3775*
1,1,0.2582,0.0825,-0.3775*
1,1,0.2582,-0.0825,-0.3775*
%
%ADD113ROUNDEDRECTD113*%
G04:AMPARAMS|DCode=114|XSize=1.0132mm|YSize=0.4232mm|CornerRadius=0.1291mm|HoleSize=0mm|Usage=FLASHONLY|Rotation=180.000|XOffset=0mm|YOffset=0mm|HoleType=Round|Shape=RoundedRectangle|*
%AMROUNDEDRECTD114*
21,1,1.0132,0.1650,0,0,180.0*
21,1,0.7550,0.4232,0,0,180.0*
1,1,0.2582,-0.3775,0.0825*
1,1,0.2582,0.3775,0.0825*
1,1,0.2582,0.3775,-0.0825*
1,1,0.2582,-0.3775,-0.0825*
%
%ADD114ROUNDEDRECTD114*%
%ADD115R,4.2032X4.2032*%
%ADD116R,1.0032X1.1032*%
G04:AMPARAMS|DCode=117|XSize=1.2032mm|YSize=2.0032mm|CornerRadius=0.1516mm|HoleSize=0mm|Usage=FLASHONLY|Rotation=180.000|XOffset=0mm|YOffset=0mm|HoleType=Round|Shape=RoundedRectangle|*
%AMROUNDEDRECTD117*
21,1,1.2032,1.7000,0,0,180.0*
21,1,0.9000,2.0032,0,0,180.0*
1,1,0.3032,-0.4500,0.8500*
1,1,0.3032,0.4500,0.8500*
1,1,0.3032,0.4500,-0.8500*
1,1,0.3032,-0.4500,-0.8500*
%
%ADD117ROUNDEDRECTD117*%
%ADD118R,1.1032X1.2032*%
%ADD119R,0.7032X1.2032*%
G04:AMPARAMS|DCode=120|XSize=0.8032mm|YSize=1.2532mm|CornerRadius=0.1466mm|HoleSize=0mm|Usage=FLASHONLY|Rotation=270.000|XOffset=0mm|YOffset=0mm|HoleType=Round|Shape=RoundedRectangle|*
%AMROUNDEDRECTD120*
21,1,0.8032,0.9600,0,0,270.0*
21,1,0.5100,1.2532,0,0,270.0*
1,1,0.2932,-0.4800,-0.2550*
1,1,0.2932,-0.4800,0.2550*
1,1,0.2932,0.4800,0.2550*
1,1,0.2932,0.4800,-0.2550*
%
%ADD120ROUNDEDRECTD120*%
%ADD121R,0.9144X1.1938*%
G04:AMPARAMS|DCode=122|XSize=1.0032mm|YSize=1.1032mm|CornerRadius=0.1616mm|HoleSize=0mm|Usage=FLASHONLY|Rotation=270.000|XOffset=0mm|YOffset=0mm|HoleType=Round|Shape=RoundedRectangle|*
%AMROUNDEDRECTD122*
21,1,1.0032,0.7800,0,0,270.0*
21,1,0.6800,1.1032,0,0,270.0*
1,1,0.3232,-0.3900,-0.3400*
1,1,0.3232,-0.3900,0.3400*
1,1,0.3232,0.3900,0.3400*
1,1,0.3232,0.3900,-0.3400*
%
%ADD122ROUNDEDRECTD122*%
G04:AMPARAMS|DCode=123|XSize=1.0032mm|YSize=1.1032mm|CornerRadius=0.1616mm|HoleSize=0mm|Usage=FLASHONLY|Rotation=0.000|XOffset=0mm|YOffset=0mm|HoleType=Round|Shape=RoundedRectangle|*
%AMROUNDEDRECTD123*
21,1,1.0032,0.7800,0,0,0.0*
21,1,0.6800,1.1032,0,0,0.0*
1,1,0.3232,0.3400,-0.3900*
1,1,0.3232,-0.3400,-0.3900*
1,1,0.3232,-0.3400,0.3900*
1,1,0.3232,0.3400,0.3900*
%
%ADD123ROUNDEDRECTD123*%
%ADD124R,0.6032X1.5532*%
%ADD125R,1.8032X1.6032*%
%ADD126R,2.1032X2.1032*%
%ADD127C,1.4032*%
%ADD128O,1.4032X0.8032*%
%ADD129R,0.5032X1.0032*%
%ADD130R,0.6032X1.0032*%
%ADD131R,10.1600X10.1600*%
%ADD132R,1.3032X3.6032*%
G04:AMPARAMS|DCode=133|XSize=1.1032mm|YSize=1.6032mm|CornerRadius=0.1691mm|HoleSize=0mm|Usage=FLASHONLY|Rotation=270.000|XOffset=0mm|YOffset=0mm|HoleType=Round|Shape=RoundedRectangle|*
%AMROUNDEDRECTD133*
21,1,1.1032,1.2650,0,0,270.0*
21,1,0.7650,1.6032,0,0,270.0*
1,1,0.3382,-0.6325,-0.3825*
1,1,0.3382,-0.6325,0.3825*
1,1,0.3382,0.6325,0.3825*
1,1,0.3382,0.6325,-0.3825*
%
%ADD133ROUNDEDRECTD133*%
G04:AMPARAMS|DCode=134|XSize=0.7366mm|YSize=2.1844mm|CornerRadius=0.1683mm|HoleSize=0mm|Usage=FLASHONLY|Rotation=90.000|XOffset=0mm|YOffset=0mm|HoleType=Round|Shape=RoundedRectangle|*
%AMROUNDEDRECTD134*
21,1,0.7366,1.8479,0,0,90.0*
21,1,0.4001,2.1844,0,0,90.0*
1,1,0.3366,0.9239,0.2000*
1,1,0.3366,0.9239,-0.2000*
1,1,0.3366,-0.9239,-0.2000*
1,1,0.3366,-0.9239,0.2000*
%
%ADD134ROUNDEDRECTD134*%
G04:AMPARAMS|DCode=135|XSize=0.7366mm|YSize=1.7032mm|CornerRadius=0.1683mm|HoleSize=0mm|Usage=FLASHONLY|Rotation=90.000|XOffset=0mm|YOffset=0mm|HoleType=Round|Shape=RoundedRectangle|*
%AMROUNDEDRECTD135*
21,1,0.7366,1.3667,0,0,90.0*
21,1,0.4001,1.7032,0,0,90.0*
1,1,0.3366,0.6833,0.2000*
1,1,0.3366,0.6833,-0.2000*
1,1,0.3366,-0.6833,-0.2000*
1,1,0.3366,-0.6833,0.2000*
%
%ADD135ROUNDEDRECTD135*%
%ADD136R,2.6032X3.4032*%
%ADD137R,4.3032X4.3032*%
%ADD138R,1.7018X3.5052*%
%ADD139R,1.0032X1.7032*%
%ADD140O,1.0032X1.7032*%
%ADD141C,1.3970*%
%ADD142C,0.8998*%
%ADD143O,1.1032X2.0032*%
%ADD144C,1.7032*%
%ADD145R,1.7032X1.7032*%
%ADD146R,1.7032X1.7032*%
%ADD147C,8.2032*%
%ADD148C,1.7112*%
%ADD149C,2.7532*%
%ADD150R,2.7532X2.7532*%
%ADD151C,1.6112*%
%ADD152R,1.6112X1.6112*%
%ADD153C,2.6032*%
%ADD154C,3.4032*%
%ADD155C,1.4712*%
%ADD156R,1.4712X1.4712*%
G36*
X217808Y376858D02*
X242192D01*
Y358570D01*
X217808D01*
Y376858D01*
D02*
G37*
G36*
Y436858D02*
X242192D01*
Y418570D01*
X217808D01*
Y436858D01*
D02*
G37*
G36*
X385000Y395000D02*
X375000D01*
Y405000D01*
X385000D01*
Y395000D01*
D02*
G37*
G36*
X112501Y776999D02*
X122501D01*
Y766999D01*
X112501D01*
Y776999D01*
D02*
G37*
G36*
X128499D02*
X138499D01*
Y766999D01*
X128499D01*
Y776999D01*
D02*
G37*
G36*
X215000Y705000D02*
Y715000D01*
X225000D01*
Y705000D01*
X215000D01*
D02*
G37*
G36*
X355000Y565000D02*
Y575000D01*
X365000D01*
Y565000D01*
X355000D01*
D02*
G37*
D57*
X239750Y414506D02*
D03*
X233250D02*
D03*
X226750D02*
D03*
X220250D02*
D03*
X239750Y354506D02*
D03*
X233250D02*
D03*
X226750D02*
D03*
X220250D02*
D03*
D58*
Y445494D02*
D03*
X226750D02*
D03*
X233250D02*
D03*
X239750D02*
D03*
X220250Y385494D02*
D03*
X226750D02*
D03*
X233250D02*
D03*
X239750D02*
D03*
D83*
X562000Y426213D02*
D03*
X558000D02*
D03*
X554000D02*
D03*
X550000D02*
D03*
X546000D02*
D03*
X542000D02*
D03*
X538000D02*
D03*
X534000D02*
D03*
X530000D02*
D03*
X526000D02*
D03*
X522000D02*
D03*
X518000D02*
D03*
X514000D02*
D03*
X510000D02*
D03*
X506000D02*
D03*
X502000D02*
D03*
X498000D02*
D03*
X494000D02*
D03*
X490000D02*
D03*
X486000D02*
D03*
X482000D02*
D03*
X478000D02*
D03*
X474000D02*
D03*
X470000D02*
D03*
X466000D02*
D03*
X462000D02*
D03*
X458000D02*
D03*
X454000D02*
D03*
X450000D02*
D03*
X446000D02*
D03*
X442000D02*
D03*
X438000D02*
D03*
Y581787D02*
D03*
X442000D02*
D03*
X446000D02*
D03*
X450000D02*
D03*
X454000D02*
D03*
X458000D02*
D03*
X462000D02*
D03*
X466000D02*
D03*
X470000D02*
D03*
X474000D02*
D03*
X478000D02*
D03*
X482000D02*
D03*
X486000D02*
D03*
X490000D02*
D03*
X494000D02*
D03*
X498000D02*
D03*
X502000D02*
D03*
X506000D02*
D03*
X510000D02*
D03*
X514000D02*
D03*
X518000D02*
D03*
X522000D02*
D03*
X526000D02*
D03*
X530000D02*
D03*
X534000D02*
D03*
X538000D02*
D03*
X542000D02*
D03*
X546000D02*
D03*
X550000D02*
D03*
X554000D02*
D03*
X558000D02*
D03*
X562000D02*
D03*
D84*
X422212Y442000D02*
D03*
Y446000D02*
D03*
Y450000D02*
D03*
Y454000D02*
D03*
Y458000D02*
D03*
Y462000D02*
D03*
Y466000D02*
D03*
Y470000D02*
D03*
Y474000D02*
D03*
Y478000D02*
D03*
Y482000D02*
D03*
Y486000D02*
D03*
Y490000D02*
D03*
Y494000D02*
D03*
Y498000D02*
D03*
Y502000D02*
D03*
Y506000D02*
D03*
Y510000D02*
D03*
Y514000D02*
D03*
Y518000D02*
D03*
Y522000D02*
D03*
Y526000D02*
D03*
Y530000D02*
D03*
Y534000D02*
D03*
Y538000D02*
D03*
Y542000D02*
D03*
Y546000D02*
D03*
Y550000D02*
D03*
Y554000D02*
D03*
Y558000D02*
D03*
Y562000D02*
D03*
Y566000D02*
D03*
X577788D02*
D03*
Y562000D02*
D03*
Y558000D02*
D03*
Y554000D02*
D03*
Y550000D02*
D03*
Y546000D02*
D03*
Y542000D02*
D03*
Y538000D02*
D03*
Y534000D02*
D03*
Y530000D02*
D03*
Y526000D02*
D03*
Y522000D02*
D03*
Y518000D02*
D03*
Y514000D02*
D03*
Y510000D02*
D03*
Y506000D02*
D03*
Y502000D02*
D03*
Y498000D02*
D03*
Y494000D02*
D03*
Y490000D02*
D03*
Y486000D02*
D03*
Y482000D02*
D03*
Y478000D02*
D03*
Y474000D02*
D03*
Y470000D02*
D03*
Y466000D02*
D03*
Y462000D02*
D03*
Y458000D02*
D03*
Y454000D02*
D03*
Y450000D02*
D03*
Y446000D02*
D03*
Y442000D02*
D03*
D86*
X340000Y177554D02*
D03*
D87*
Y199779D02*
D03*
D96*
X651001Y671625D02*
D03*
X540001Y715375D02*
D03*
X550001Y715375D02*
D03*
D97*
X615000Y789000D02*
D03*
D98*
X170000Y442000D02*
D03*
Y358000D02*
D03*
D99*
X165931Y555550D02*
D03*
Y568250D02*
D03*
Y580950D02*
D03*
Y593650D02*
D03*
Y606350D02*
D03*
Y619050D02*
D03*
Y631750D02*
D03*
Y644450D02*
D03*
X254069D02*
D03*
Y631750D02*
D03*
Y619050D02*
D03*
Y606350D02*
D03*
Y593650D02*
D03*
Y580950D02*
D03*
Y568250D02*
D03*
Y555550D02*
D03*
D100*
X280000Y628500D02*
D03*
Y611500D02*
D03*
Y568500D02*
D03*
Y551500D02*
D03*
X300000Y438500D02*
D03*
Y421500D02*
D03*
X280000Y421500D02*
D03*
Y438500D02*
D03*
X487999Y258502D02*
D03*
Y275502D02*
D03*
X599000Y397500D02*
D03*
Y414500D02*
D03*
X446000Y402500D02*
D03*
Y385500D02*
D03*
X448000Y606500D02*
D03*
Y623500D02*
D03*
X436000Y606500D02*
D03*
Y623500D02*
D03*
X595000Y680500D02*
D03*
Y663500D02*
D03*
X870000Y738500D02*
D03*
Y721500D02*
D03*
X830000Y738500D02*
D03*
Y721500D02*
D03*
X170000Y751500D02*
D03*
Y768500D02*
D03*
X440000Y243500D02*
D03*
Y260500D02*
D03*
X230000Y51500D02*
D03*
Y68500D02*
D03*
X250000Y51500D02*
D03*
Y68500D02*
D03*
X422000Y623500D02*
D03*
Y606500D02*
D03*
X407000Y623500D02*
D03*
Y606500D02*
D03*
X200000Y718500D02*
D03*
Y701500D02*
D03*
X180000Y701500D02*
D03*
Y718500D02*
D03*
D101*
X139500Y515000D02*
D03*
X122500D02*
D03*
X261500Y340000D02*
D03*
X278500D02*
D03*
X509499Y297002D02*
D03*
X526499D02*
D03*
X379500Y218000D02*
D03*
X396500D02*
D03*
X438500Y180000D02*
D03*
X421500D02*
D03*
X558500Y200000D02*
D03*
X541500D02*
D03*
X558500Y180000D02*
D03*
X541500D02*
D03*
Y160000D02*
D03*
X558500D02*
D03*
X541500Y140000D02*
D03*
X558500D02*
D03*
X392500Y526000D02*
D03*
X375500D02*
D03*
X392500Y556000D02*
D03*
X375500D02*
D03*
Y570000D02*
D03*
X392500D02*
D03*
X568500Y780000D02*
D03*
X551500D02*
D03*
X568500Y765000D02*
D03*
X551500D02*
D03*
X693500Y730000D02*
D03*
X676500D02*
D03*
X676500Y700000D02*
D03*
X693500D02*
D03*
X676500Y715000D02*
D03*
X693500D02*
D03*
X706500Y730000D02*
D03*
X723500D02*
D03*
X706500Y715000D02*
D03*
X723500D02*
D03*
X706500Y700000D02*
D03*
X723500D02*
D03*
X676500Y685000D02*
D03*
X693500D02*
D03*
X671500Y510000D02*
D03*
X688500D02*
D03*
Y450000D02*
D03*
X671500D02*
D03*
X688500Y350000D02*
D03*
X671500D02*
D03*
X688500Y290000D02*
D03*
X671500D02*
D03*
X688500Y200000D02*
D03*
X671500D02*
D03*
X688500Y140000D02*
D03*
X671500D02*
D03*
X741500Y295000D02*
D03*
X758500D02*
D03*
X741500Y345000D02*
D03*
X758500D02*
D03*
X741500Y505000D02*
D03*
X758500D02*
D03*
X688500Y660000D02*
D03*
X671500D02*
D03*
Y600000D02*
D03*
X688500D02*
D03*
X741500Y605000D02*
D03*
X758500D02*
D03*
X741500Y655000D02*
D03*
X758500D02*
D03*
X626500Y792000D02*
D03*
X643500D02*
D03*
X138500Y733000D02*
D03*
X121500D02*
D03*
X598500Y200000D02*
D03*
X581500D02*
D03*
X388500Y420000D02*
D03*
X371500D02*
D03*
X388500Y440000D02*
D03*
X371500D02*
D03*
X788500Y205000D02*
D03*
X771500D02*
D03*
X788500Y110000D02*
D03*
X771500D02*
D03*
X758500Y180000D02*
D03*
X741500D02*
D03*
X758500Y160000D02*
D03*
X741500D02*
D03*
X758500Y310000D02*
D03*
X741500D02*
D03*
X758500Y330000D02*
D03*
X741500D02*
D03*
X788500Y260000D02*
D03*
X771500D02*
D03*
X788500Y355000D02*
D03*
X771500D02*
D03*
X758500Y490000D02*
D03*
X741500D02*
D03*
X758500Y470000D02*
D03*
X741500D02*
D03*
X788500Y420000D02*
D03*
X771500D02*
D03*
X788500Y515000D02*
D03*
X771500D02*
D03*
X758500Y640000D02*
D03*
X741500D02*
D03*
X758500Y620000D02*
D03*
X741500D02*
D03*
X788500Y665000D02*
D03*
X771500D02*
D03*
X788500Y570000D02*
D03*
X771500D02*
D03*
X251500Y150000D02*
D03*
X268500D02*
D03*
X251500Y130000D02*
D03*
X268500D02*
D03*
X268500Y190554D02*
D03*
X251500D02*
D03*
Y170000D02*
D03*
X268500D02*
D03*
X375500Y584000D02*
D03*
X392500D02*
D03*
X509500Y237000D02*
D03*
X526500D02*
D03*
X758500Y195000D02*
D03*
X741500D02*
D03*
X758500Y145000D02*
D03*
X741500D02*
D03*
D102*
X260000Y445750D02*
D03*
Y414250D02*
D03*
D103*
X270000Y381850D02*
D03*
X279500Y358150D02*
D03*
X260500D02*
D03*
X191500Y122850D02*
D03*
X172500D02*
D03*
X182000Y99150D02*
D03*
D104*
X300000Y345700D02*
D03*
Y374300D02*
D03*
D105*
X423000Y238000D02*
D03*
X377000D02*
D03*
X400000D02*
D03*
D106*
Y300000D02*
D03*
D107*
X531500Y276500D02*
D03*
Y257500D02*
D03*
X504500D02*
D03*
Y267000D02*
D03*
Y276500D02*
D03*
X313500Y159500D02*
D03*
Y150000D02*
D03*
Y140500D02*
D03*
X286500D02*
D03*
Y150000D02*
D03*
Y159500D02*
D03*
X513500Y725500D02*
D03*
Y716000D02*
D03*
Y706500D02*
D03*
X486500D02*
D03*
Y716000D02*
D03*
Y725500D02*
D03*
D108*
X440500Y150000D02*
D03*
X419500D02*
D03*
X600500Y130000D02*
D03*
X579500D02*
D03*
X289500Y234554D02*
D03*
X310500D02*
D03*
D109*
X587000Y355000D02*
D03*
X577000D02*
D03*
Y386000D02*
D03*
X587000D02*
D03*
D110*
X563000Y366000D02*
D03*
Y376000D02*
D03*
X609000Y667000D02*
D03*
Y677000D02*
D03*
X642000D02*
D03*
Y667000D02*
D03*
X651000Y677000D02*
D03*
Y667000D02*
D03*
X540000Y710000D02*
D03*
Y720000D02*
D03*
X550000Y710000D02*
D03*
Y720000D02*
D03*
D111*
X575000Y376000D02*
D03*
X589000D02*
D03*
X575000Y365000D02*
D03*
X589000D02*
D03*
D112*
X359999Y578501D02*
D03*
Y561501D02*
D03*
X219999Y701501D02*
D03*
Y718501D02*
D03*
D113*
X646000Y774450D02*
D03*
X642000D02*
D03*
X638000D02*
D03*
X634000D02*
D03*
X630000D02*
D03*
X626000D02*
D03*
X622000D02*
D03*
X618000D02*
D03*
X614000D02*
D03*
X610000D02*
D03*
X606000D02*
D03*
X602000D02*
D03*
X598000D02*
D03*
X594000D02*
D03*
Y705550D02*
D03*
X598000D02*
D03*
X602000D02*
D03*
X606000D02*
D03*
X610000D02*
D03*
X614000D02*
D03*
X618000D02*
D03*
X622000D02*
D03*
X626000D02*
D03*
X630000D02*
D03*
X634000D02*
D03*
X638000D02*
D03*
X642000D02*
D03*
X646000D02*
D03*
D114*
X654450Y714000D02*
D03*
Y718000D02*
D03*
Y722000D02*
D03*
Y726000D02*
D03*
Y730000D02*
D03*
Y734000D02*
D03*
Y738000D02*
D03*
Y742000D02*
D03*
Y746000D02*
D03*
Y750000D02*
D03*
Y754000D02*
D03*
Y758000D02*
D03*
Y762000D02*
D03*
Y766000D02*
D03*
X585550D02*
D03*
Y762000D02*
D03*
Y758000D02*
D03*
Y754000D02*
D03*
Y750000D02*
D03*
Y746000D02*
D03*
Y742000D02*
D03*
Y738000D02*
D03*
Y734000D02*
D03*
Y730000D02*
D03*
Y726000D02*
D03*
Y722000D02*
D03*
Y718000D02*
D03*
Y714000D02*
D03*
D115*
X620000Y740000D02*
D03*
D116*
X620000Y665000D02*
D03*
Y679000D02*
D03*
X631000Y665000D02*
D03*
Y679000D02*
D03*
D117*
X787000Y400000D02*
D03*
X757000D02*
D03*
D118*
X108000Y772000D02*
D03*
X142000D02*
D03*
X371499Y399999D02*
D03*
X388499D02*
D03*
D119*
X125000Y772000D02*
D03*
D120*
X138150Y710000D02*
D03*
X161850Y719500D02*
D03*
Y700500D02*
D03*
X98150Y710000D02*
D03*
X121850Y719500D02*
D03*
Y700500D02*
D03*
D121*
X427750Y722500D02*
D03*
Y677500D02*
D03*
X406250Y722500D02*
D03*
Y677500D02*
D03*
X406000Y737000D02*
D03*
Y782000D02*
D03*
X427500Y737000D02*
D03*
Y782000D02*
D03*
D122*
X158000Y752500D02*
D03*
Y767500D02*
D03*
X830000Y777500D02*
D03*
Y762500D02*
D03*
X870000Y777500D02*
D03*
Y762500D02*
D03*
D123*
X787500Y591000D02*
D03*
X772500D02*
D03*
X787500Y131000D02*
D03*
X772500D02*
D03*
X597500Y180000D02*
D03*
X582500D02*
D03*
X787500Y640000D02*
D03*
X772500D02*
D03*
Y160000D02*
D03*
X787500D02*
D03*
X772500Y180000D02*
D03*
X787500D02*
D03*
X252500Y210000D02*
D03*
X267500D02*
D03*
X787500Y310000D02*
D03*
X772500D02*
D03*
X787500Y330000D02*
D03*
X772500D02*
D03*
X787500Y620000D02*
D03*
X772500D02*
D03*
X787500Y470000D02*
D03*
X772500D02*
D03*
X787500Y490000D02*
D03*
X772500D02*
D03*
Y281000D02*
D03*
X787500D02*
D03*
X772500Y441000D02*
D03*
X787500D02*
D03*
D124*
X513000Y753250D02*
D03*
X506500D02*
D03*
X500000D02*
D03*
X493500D02*
D03*
X487000D02*
D03*
D125*
X532000Y755500D02*
D03*
X468000D02*
D03*
D126*
X512000Y780000D02*
D03*
X488000D02*
D03*
D127*
X359048Y389142D02*
D03*
X440000Y670000D02*
D03*
X450000Y660000D02*
D03*
X460000Y670000D02*
D03*
X470000Y660000D02*
D03*
X480000Y670000D02*
D03*
X490000Y660000D02*
D03*
X500000Y670000D02*
D03*
X510000Y660000D02*
D03*
X520000Y670000D02*
D03*
X540000D02*
D03*
X579000Y160000D02*
D03*
X430000Y300000D02*
D03*
X549000D02*
D03*
X530000Y660000D02*
D03*
X550000D02*
D03*
D128*
X370000Y457000D02*
D03*
Y474000D02*
D03*
D129*
X367500Y657800D02*
D03*
X362500D02*
D03*
X357500D02*
D03*
X352500D02*
D03*
X347500D02*
D03*
X342500D02*
D03*
X337500D02*
D03*
X332500D02*
D03*
X327500D02*
D03*
X322500D02*
D03*
X317500D02*
D03*
X312500D02*
D03*
D130*
X377500Y682800D02*
D03*
X302500D02*
D03*
D131*
X500000Y504000D02*
D03*
D132*
X315000Y200000D02*
D03*
X285000D02*
D03*
D133*
X340000Y160500D02*
D03*
Y139500D02*
D03*
D134*
X204637Y53651D02*
D03*
Y66351D02*
D03*
Y79051D02*
D03*
Y40951D02*
D03*
X155361D02*
D03*
Y53651D02*
D03*
Y66351D02*
D03*
Y79051D02*
D03*
D135*
X517000Y153651D02*
D03*
Y166351D02*
D03*
Y179051D02*
D03*
Y140951D02*
D03*
X463000D02*
D03*
Y153651D02*
D03*
Y166351D02*
D03*
Y179051D02*
D03*
D136*
X490000Y160000D02*
D03*
D137*
X547500Y70000D02*
D03*
X452500D02*
D03*
D138*
X380000Y93020D02*
D03*
Y26980D02*
D03*
X620000Y93020D02*
D03*
Y26980D02*
D03*
D139*
X750950Y750000D02*
D03*
D140*
X763650Y750000D02*
D03*
X776350D02*
D03*
X789050D02*
D03*
D141*
X848100Y146000D02*
D03*
X822700Y158700D02*
D03*
X848100Y171400D02*
D03*
X822700Y184100D02*
D03*
X848100Y196800D02*
D03*
X822700Y209500D02*
D03*
X848100Y222200D02*
D03*
X822700Y234900D02*
D03*
X848100Y285700D02*
D03*
X822700Y298400D02*
D03*
X848100Y311100D02*
D03*
X822700Y323800D02*
D03*
X848100Y336500D02*
D03*
X822700Y349200D02*
D03*
X848100Y361900D02*
D03*
X822700Y374600D02*
D03*
X848100Y425400D02*
D03*
X822700Y438100D02*
D03*
X848100Y450800D02*
D03*
X822700Y463500D02*
D03*
X848100Y476200D02*
D03*
X822700Y488900D02*
D03*
X848100Y501600D02*
D03*
X822700Y514300D02*
D03*
X848100Y565100D02*
D03*
X822700Y577800D02*
D03*
X848100Y590500D02*
D03*
X822700Y603200D02*
D03*
X848100Y615900D02*
D03*
X822700Y628600D02*
D03*
X848100Y641300D02*
D03*
X822700Y654000D02*
D03*
D142*
X810000Y260300D02*
D03*
Y400000D02*
D03*
Y539700D02*
D03*
X948430Y105614D02*
D03*
Y694386D02*
D03*
D143*
X533000Y780000D02*
D03*
X467000D02*
D03*
D144*
X31900Y310000D02*
D03*
X57300D02*
D03*
X82700Y310000D02*
D03*
X190000Y161900D02*
D03*
Y187300D02*
D03*
X190000Y212700D02*
D03*
X290000Y60000D02*
D03*
X290000Y34601D02*
D03*
D145*
X108100Y310000D02*
D03*
D146*
X190000Y238100D02*
D03*
X290000Y85400D02*
D03*
D147*
X50000Y750000D02*
D03*
Y50000D02*
D03*
X950000Y750000D02*
D03*
X949999Y49999D02*
D03*
D148*
X10000Y345000D02*
D03*
Y455000D02*
D03*
D149*
X110000Y425000D02*
D03*
D150*
Y375000D02*
D03*
D151*
X121400Y564300D02*
D03*
Y655700D02*
D03*
Y541400D02*
D03*
Y678600D02*
D03*
X73200Y604900D02*
D03*
X55400Y615100D02*
D03*
Y594700D02*
D03*
X73200Y625300D02*
D03*
Y584500D02*
D03*
X55400Y635500D02*
D03*
X73200Y645700D02*
D03*
D152*
X55400Y574300D02*
D03*
D153*
X64300Y528750D02*
D03*
Y691250D02*
D03*
D154*
X30000Y546500D02*
D03*
Y673500D02*
D03*
X50000Y142850D02*
D03*
Y257150D02*
D03*
D155*
X138900Y155550D02*
D03*
X113500Y168250D02*
D03*
X138900Y180950D02*
D03*
X113500Y193650D02*
D03*
X138900Y206350D02*
D03*
X113500Y219050D02*
D03*
X138900Y231750D02*
D03*
D156*
X113500Y244450D02*
D03*
M02*
